#!OML:ASF X:\für Bonn\!DataBase\2005_08_11_Bastian_Final\c3d\Bastian.ASF
:FULLY-SPECIFIED
:DEGREES
62
root 23.7833 17.06 -5.20597 536.885 -102.498 -175.544
lowerback 60.1214 -2.06994 14.8084
upperback 19.5486 2.02488 4.20956
thorax 1.6588 0.215095 -2.3882
lowerneck -1.34815 -8.12511 -1.12248
upperneck -14.0685 -10.8642 4.7483
head -4.03386 -5.75196 2.09442
rclavicle -7.31528e-014 -1.98785e-014
rhumerus 40.2174 1.10175 -54.5059
rradius 17.7397
rwrist -1.52826
rhand -26.825 -4.36455
rfingers 7.12502
rthumb -0.251115 -34.3441
lclavicle -7.31528e-014 -1.98785e-014
lhumerus -10.9571 -30.7215 87.6844
lradius 41.5579
lwrist 27.2651
lhand -13.0491 -8.98689
lfingers 7.12502
lthumb 13.0459 20.5851
rfemur -33.6471 -8.07967 22.5865
rtibia 44.4127
rfoot -4.64417 0.207349
rtoes 9.50768
lfemur -29.7048 3.11452 -22.0681
ltibia 33.1281
lfoot -2.66867 -2.02657
ltoes -13.3353
63
root 23.7692 17.0534 -5.19519 536.722 -102.468 -174.548
lowerback 60.5504 -2.21155 14.9084
upperback 19.5174 1.96785 4.08148
thorax 1.63423 0.207562 -2.52497
lowerneck -1.60331 -8.1544 -1.05033
upperneck -14.3924 -10.9351 4.63076
head -4.11197 -5.79856 2.04823
rclavicle 1.59028e-014 3.27995e-014
rhumerus 41.1513 0.380346 -54.2919
rradius 17.6803
rwrist -1.24779
rhand -26.6912 -4.49602
rfingers 7.12502
rthumb -0.121795 -34.4757
lclavicle 1.59028e-014 3.27995e-014
lhumerus -10.8469 -30.7862 87.5122
lradius 41.8861
lwrist 27.4693
lhand -12.9761 -9.04208
lfingers 7.12502
lthumb 13.1162 20.5254
rfemur -34.7614 -8.29101 22.5013
rtibia 44.825
rfoot -4.77238 0.484311
rtoes 9.54313
lfemur -30.5678 3.20801 -22.4149
ltibia 33.0601
lfoot -2.2363 -2.03766
ltoes -12.7732
64
root 23.7563 17.0444 -5.18375 536.451 -102.464 -173.404
lowerback 60.912 -2.35023 14.9864
upperback 19.4949 1.8967 3.95433
thorax 1.6178 0.19571 -2.65044
lowerneck -1.8136 -8.17674 -0.999872
upperneck -14.7258 -10.9935 4.54408
head -4.20003 -5.83935 2.01865
rclavicle 9.54166e-015 1.78906e-014
rhumerus 42.0383 -0.229302 -53.9629
rradius 17.6675
rwrist -1.16558
rhand -26.5825 -4.61376
rfingers 7.12502
rthumb -0.0168554 -34.5935
lclavicle 9.54166e-015 1.78906e-014
lhumerus -10.6793 -30.8116 87.3367
lradius 42.1181
lwrist 27.672
lhand -12.8744 -9.18427
lfingers 7.12502
lthumb 13.2142 20.3769
rfemur -35.9371 -8.51789 22.3895
rtibia 45.2582
rfoot -4.91642 0.756535
rtoes 9.50576
lfemur -31.4917 3.36674 -22.8341
ltibia 32.994
lfoot -1.77145 -2.11428
ltoes -12.1017
65
root 23.7416 17.0363 -5.17248 535.684 -102.465 -171.743
lowerback 61.2916 -2.46422 14.9769
upperback 19.4519 1.81734 3.80674
thorax 1.56662 0.177247 -2.76026
lowerneck -1.96594 -8.17495 -0.972045
upperneck -15.0855 -11.0136 4.50092
head -4.30659 -5.86166 2.01116
rclavicle -3.18055e-014 -6.36111e-015
rhumerus 42.9029 -0.873209 -53.6745
rradius 17.6349
rwrist -1.05588
rhand -26.4551 -4.71549
rfingers 7.12502
rthumb 0.106218 -34.6952
lclavicle -3.18055e-014 -6.36111e-015
lhumerus -10.6739 -30.902 87.1736
lradius 42.5248
lwrist 27.9173
lhand -12.8249 -9.26432
lfingers 7.12502
lthumb 13.262 20.2938
rfemur -37.1335 -8.74424 22.1633
rtibia 45.7121
rfoot -5.05192 1.03209
rtoes 9.54381
lfemur -32.411 3.44498 -23.3522
ltibia 32.9464
lfoot -1.37658 -2.1576
ltoes -11.4535
66
root 23.7264 17.027 -5.16206 534.956 -102.501 -170.094
lowerback 61.6156 -2.58891 14.9618
upperback 19.4185 1.7167 3.65433
thorax 1.5256 0.152204 -2.86861
lowerneck -2.08905 -8.15691 -1.00168
upperneck -15.4575 -10.9974 4.56694
head -4.41477 -5.86774 2.05034
rclavicle 5.40694e-014 2.38542e-015
rhumerus 43.7452 -1.4164 -53.3311
rradius 17.6365
rwrist -1.06456
rhand -26.406 -4.82418
rfingers 7.12502
rthumb 0.153649 -34.8039
lclavicle 5.40694e-014 2.38542e-015
lhumerus -10.6583 -30.9954 86.9778
lradius 42.9412
lwrist 28.2197
lhand -12.8116 -9.42712
lfingers 7.12502
lthumb 13.2748 20.1301
rfemur -38.3621 -8.96855 21.936
rtibia 46.1766
rfoot -5.2084 1.28054
rtoes 9.64847
lfemur -33.3782 3.54087 -23.8908
ltibia 32.9257
lfoot -0.96363 -2.23624
ltoes -11.0104
67
root 23.7114 17.0155 -5.15126 534.722 -102.526 -168.971
lowerback 61.9407 -2.76143 15.056
upperback 19.3987 1.61549 3.49062
thorax 1.51631 0.136383 -3.03184
lowerneck -2.27043 -8.11221 -1.03317
upperneck -15.7947 -10.9422 4.64471
head -4.49986 -5.85427 2.08765
rclavicle 9.85972e-014 3.58309e-014
rhumerus 44.5827 -1.95551 -52.9665
rradius 17.6441
rwrist -1.20262
rhand -26.3708 -4.90499
rfingers 7.12502
rthumb 0.187656 -34.8846
lclavicle 9.85972e-014 3.58309e-014
lhumerus -10.4309 -31.1265 86.7181
lradius 43.2072
lwrist 28.5643
lhand -12.7994 -9.55767
lfingers 7.12502
lthumb 13.2866 19.9988
rfemur -39.5739 -9.1822 21.8527
rtibia 46.6451
rfoot -5.33712 1.50152
rtoes 9.49588
lfemur -34.349 3.68333 -24.3283
ltibia 32.9318
lfoot -0.565826 -2.36599
ltoes -10.5357
68
root 23.6961 17.003 -5.14128 534.364 -102.576 -167.724
lowerback 62.2358 -2.93504 15.1239
upperback 19.3952 1.49339 3.32021
thorax 1.52129 0.11266 -3.18651
lowerneck -2.43816 -8.06288 -1.04775
upperneck -16.1552 -10.8783 4.73628
head -4.59735 -5.83867 2.1291
rclavicle 2.8625e-014 2.66123e-014
rhumerus 45.4413 -2.56612 -52.7506
rradius 17.6019
rwrist -1.22607
rhand -26.4538 -4.88282
rfingers 7.12502
rthumb 0.10748 -34.8625
lclavicle 2.8625e-014 2.66123e-014
lhumerus -10.1682 -31.1452 86.4516
lradius 43.4566
lwrist 28.8701
lhand -12.6925 -9.69369
lfingers 7.12502
lthumb 13.3896 19.856
rfemur -40.7807 -9.38381 21.7272
rtibia 47.1113
rfoot -5.47639 1.6885
rtoes 9.6636
lfemur -35.3291 3.73748 -24.773
ltibia 32.9854
lfoot -0.219355 -2.44885
ltoes -10.0732
69
root 23.6802 16.9906 -5.13082 534.019 -102.649 -166.521
lowerback 62.5509 -3.14954 15.2321
upperback 19.3788 1.35594 3.12922
thorax 1.51685 0.0875255 -3.37267
lowerneck -2.56825 -8.01892 -1.04815
upperneck -16.5401 -10.8221 4.82039
head -4.71315 -5.8279 2.1701
rclavicle 3.49861e-014 -1.56046e-014
rhumerus 46.1979 -2.98482 -52.2755
rradius 17.6559
rwrist -1.59135
rhand -26.6219 -4.96311
rfingers 7.12502
rthumb -0.0549113 -34.9429
lclavicle 3.49861e-014 -1.56046e-014
lhumerus -9.91762 -31.27 86.1397
lradius 43.7241
lwrist 29.183
lhand -12.657 -9.87433
lfingers 7.12502
lthumb 13.4239 19.6731
rfemur -41.9425 -9.58765 21.5987
rtibia 47.5798
rfoot -5.59943 1.86295
rtoes 9.75263
lfemur -36.2954 3.80801 -25.2317
ltibia 33.0789
lfoot 0.129922 -2.57733
ltoes -9.75378
70
root 23.6636 16.9763 -5.12113 533.806 -102.703 -165.444
lowerback 62.8569 -3.3329 15.2919
upperback 19.3734 1.22269 2.97347
thorax 1.51808 0.0557679 -3.50345
lowerneck -2.77495 -7.94842 -1.10845
upperneck -16.8875 -10.7357 4.87537
head -4.80006 -5.79744 2.20398
rclavicle -9.54166e-014 6.95746e-015
rhumerus 46.9969 -3.35944 -51.7705
rradius 17.7182
rwrist -1.94888
rhand -26.8195 -4.97364
rfingers 7.12502
rthumb -0.245742 -34.9532
lclavicle -9.54166e-014 6.95746e-015
lhumerus -9.65403 -31.267 85.8796
lradius 44.0077
lwrist 29.4727
lhand -12.614 -10.0494
lfingers 7.12502
lthumb 13.4653 19.4953
rfemur -43.1248 -9.79276 21.5208
rtibia 48.0544
rfoot -5.75308 2.0547
rtoes 9.77791
lfemur -37.2984 3.82779 -25.6316
ltibia 33.2251
lfoot 0.409133 -2.6354
ltoes -9.26769
71
root 23.6461 16.9607 -5.11061 533.594 -102.763 -164.389
lowerback 63.1609 -3.54138 15.385
upperback 19.358 1.08372 2.78373
thorax 1.51261 0.0294858 -3.6827
lowerneck -2.80351 -7.88924 -1.11857
upperneck -17.7519 -10.6199 5.09387
head -4.54131 -5.78723 2.07924
rclavicle 1.01778e-013 3.39922e-014
rhumerus 47.7123 -3.76657 -51.3474
rradius 17.7585
rwrist -2.19708
rhand -27.0812 -4.96943
rfingers 7.12502
rthumb -0.498499 -34.9486
lclavicle 1.01778e-013 3.39922e-014
lhumerus -9.38722 -31.27 85.5877
lradius 44.2707
lwrist 29.7401
lhand -12.568 -10.1955
lfingers 7.12502
lthumb 13.5096 19.3463
rfemur -44.2838 -9.9493 21.4231
rtibia 48.5409
rfoot -5.9185 2.19008
rtoes 9.81083
lfemur -38.2849 3.82144 -26.0317
ltibia 33.4109
lfoot 0.66764 -2.67826
ltoes -9.05041
72
root 23.628 16.9424 -5.10098 533.489 -102.823 -163.457
lowerback 63.5116 -3.73795 15.4552
upperback 19.3225 0.958443 2.6255
thorax 1.48272 0.000956688 -3.82049
lowerneck -3.00847 -7.84143 -1.18899
upperneck -18.1317 -10.558 5.18704
head -4.61758 -5.77275 2.12199
rclavicle -1.27222e-014 -2.50469e-014
rhumerus 48.4156 -4.05414 -50.7461
rradius 17.8294
rwrist -2.67219
rhand -27.2967 -4.96643
rfingers 7.12502
rthumb -0.706614 -34.945
lclavicle -1.27222e-014 -2.50469e-014
lhumerus -9.13766 -31.215 85.3392
lradius 44.543
lwrist 29.98
lhand -12.5339 -10.3552
lfingers 7.12502
lthumb 13.5425 19.1844
rfemur -45.429 -10.1303 21.371
rtibia 49.0356
rfoot -6.08024 2.32629
rtoes 9.7848
lfemur -39.279 3.8236 -26.3992
ltibia 33.6657
lfoot 0.865838 -2.73502
ltoes -8.40649
73
root 23.61 16.924 -5.09096 533.252 -102.898 -162.416
lowerback 63.835 -3.94722 15.5128
upperback 19.2967 0.808149 2.45422
thorax 1.46052 -0.0362636 -3.96036
lowerneck -3.15665 -7.79216 -1.2613
upperneck -18.5591 -10.4923 5.28933
head -4.71759 -5.75786 2.17261
rclavicle -6.99722e-014 -6.44062e-014
rhumerus 49.0738 -4.33171 -50.1708
rradius 17.9147
rwrist -3.04198
rhand -27.5249 -5.04766
rfingers 7.12502
rthumb -0.927093 -35.0254
lclavicle -6.99722e-014 -6.44062e-014
lhumerus -8.92698 -31.1421 85.1126
lradius 44.8418
lwrist 30.1952
lhand -12.5448 -10.461
lfingers 7.12502
lthumb 13.5319 19.0793
rfemur -46.5542 -10.297 21.2732
rtibia 49.5391
rfoot -6.23553 2.44655
rtoes 10.0187
lfemur -40.254 3.71079 -26.7567
ltibia 33.9697
lfoot 1.00806 -2.71725
ltoes -8.13016
74
root 23.5911 16.9049 -5.08154 533.138 -102.992 -161.525
lowerback 64.1922 -4.15844 15.5575
upperback 19.263 0.657823 2.3203
thorax 1.42879 -0.0812884 -4.05168
lowerneck -3.48799 -7.74731 -1.44335
upperneck -18.781 -10.4301 5.40627
head -4.71739 -5.73443 2.22768
rclavicle -3.49861e-014 6.75868e-015
rhumerus 49.7056 -4.46361 -49.3678
rradius 18.079
rwrist -3.66304
rhand -27.7739 -5.15142
rfingers 7.12502
rthumb -1.16753 -35.128
lclavicle -3.49861e-014 6.75868e-015
lhumerus -8.71546 -30.9869 84.9102
lradius 45.1467
lwrist 30.3771
lhand -12.4995 -10.5963
lfingers 7.12502
lthumb 13.5756 18.9411
rfemur -47.6527 -10.4894 21.2201
rtibia 50.0491
rfoot -6.41184 2.56831
rtoes 9.89176
lfemur -41.229 3.61568 -27.0908
ltibia 34.3368
lfoot 1.0907 -2.72228
ltoes -7.92395
75
root 23.5712 16.8846 -5.07275 533.159 -103.06 -160.772
lowerback 64.5533 -4.36094 15.5965
upperback 19.1967 0.523388 2.177
thorax 1.36056 -0.120237 -4.15643
lowerneck -3.85394 -7.68833 -1.6957
upperneck -18.8663 -10.3345 5.5767
head -4.66344 -5.68796 2.30199
rclavicle 6.67916e-014 8.34896e-015
rhumerus 50.4983 -4.85488 -49.0737
rradius 17.8796
rwrist -3.71517
rhand -28.0371 -5.09912
rfingers 7.12502
rthumb -1.42176 -35.0741
lclavicle 6.67916e-014 8.34896e-015
lhumerus -8.61048 -30.8122 84.7468
lradius 45.4668
lwrist 30.488
lhand -12.5154 -10.7633
lfingers 7.12502
lthumb 13.5603 18.7751
rfemur -48.739 -10.6182 21.1864
rtibia 50.5645
rfoot -6.59747 2.6563
rtoes 9.9009
lfemur -42.2166 3.51098 -27.3719
ltibia 34.7368
lfoot 1.15091 -2.7192
ltoes -7.70788
76
root 23.5513 16.8638 -5.06418 533.007 -103.152 -159.857
lowerback 64.8904 -4.55668 15.6022
upperback 19.1523 0.370972 2.02907
thorax 1.31162 -0.16601 -4.2488
lowerneck -4.2526 -7.62609 -1.8776
upperneck -18.9291 -10.2424 5.68114
head -4.60549 -5.64333 2.3438
rclavicle 3.49861e-014 5.56597e-015
rhumerus 51.2821 -5.27774 -48.8193
rradius 17.7235
rwrist -3.71935
rhand -28.2162 -5.02395
rfingers 7.12502
rthumb -1.59472 -34.9977
lclavicle 3.49861e-014 5.56597e-015
lhumerus -8.51852 -30.5845 84.5786
lradius 45.8196
lwrist 30.5938
lhand -12.4965 -10.9553
lfingers 7.12502
lthumb 13.5786 18.5819
rfemur -49.8268 -10.7945 21.1287
rtibia 51.0893
rfoot -6.78428 2.76103
rtoes 9.84306
lfemur -43.2143 3.42425 -27.7163
ltibia 35.1717
lfoot 1.1852 -2.74337
ltoes -7.72329
